<?xml version='1.0' encoding='UTF-8'?>
<svg xmlns="http://www.w3.org/2000/svg" xmlns:xlink="http://www.w3.org/1999/xlink" version="1.1" id="Layer_1" x="0px" y="0px" width="512" viewBox="0 0 1024 1024" enable-background="new 0 0 1024 1024" xml:space="preserve" height="512">
<path fill="#000000" opacity="1.000000" stroke="none" d=" M575.110840,671.000000   C575.107483,681.832214 574.962219,692.167297 575.168701,702.495361   C575.253235,706.726440 573.987122,708.420898 569.491821,708.374329   C549.829163,708.170532 530.162292,708.147461 510.499664,708.340637   C505.912170,708.385681 504.531189,706.929688 504.552094,702.348328   C504.705688,668.685974 504.618683,635.022461 504.595947,601.359314   C504.590485,593.281921 504.494934,593.191528 496.587219,593.183044   C479.588989,593.164734 462.590729,593.155273 445.592499,593.154846   C437.209412,593.154602 437.204346,593.167236 437.210876,601.782288   C437.216675,609.448120 437.134644,617.116028 437.294983,624.778748   C437.364929,628.121582 436.365753,629.494080 432.750824,629.479919   C411.921967,629.398376 391.092102,629.501465 370.263123,629.632996   C367.108978,629.652893 366.434540,628.304443 366.439697,625.363037   C366.558380,558.037354 366.587311,490.711456 366.623291,423.385590   C366.636047,399.554749 366.611420,375.723846 366.647339,351.893066   C366.649994,350.139771 366.112152,348.242920 367.645020,346.352142   C371.899109,348.058594 374.648895,351.742096 377.901520,354.625458   C396.354340,370.983459 414.587494,387.589417 433.061432,403.923218   C436.114777,406.622864 437.290253,409.401611 437.278290,413.402924   C437.160797,452.731812 437.199371,492.061157 437.202820,531.390381   C437.203461,538.872009 437.289825,538.974182 444.679535,538.983276   C462.177704,539.004822 479.675903,539.002869 497.174103,538.987000   C504.455780,538.980408 504.605225,538.805603 504.607239,531.290100   C504.610870,517.624878 504.695190,503.958649 504.539215,490.295197   C504.501190,486.962524 505.683350,484.674835 508.100403,482.529907   C525.171448,467.380890 542.130249,452.105164 559.224792,436.982849   C561.830017,434.678223 562.940613,432.195587 562.880737,428.741638   C562.727722,419.912140 563.078857,411.070099 562.776611,402.248505   C562.609253,397.362579 564.032104,393.880920 567.779724,390.556305   C593.950989,367.338409 619.949890,343.925781 645.932251,320.495911   C648.136841,318.507874 649.953552,318.216492 652.583557,319.593750   C684.902954,336.518677 717.267151,353.358124 749.615540,370.227692   C751.233093,371.071259 753.119507,371.813019 753.129700,374.037018   C753.176208,384.144440 753.150085,394.252228 753.150085,405.571198   C718.558838,391.714386 684.977661,378.262177 651.499939,364.851440   C649.559875,366.627838 650.223083,368.582458 650.207764,370.294495   C650.125610,379.459473 650.425537,388.635895 650.060059,397.787018   C649.866333,402.636963 651.526917,404.919312 656.208496,406.242523   C680.875854,413.214905 705.465271,420.462891 730.084167,427.607056   C736.478394,429.462585 742.861389,431.362274 749.288940,433.095184   C752.167175,433.871155 753.334167,435.462891 753.287109,438.458130   C753.161255,446.455261 753.112610,454.458740 753.298279,462.453552   C753.394775,466.607452 751.729980,467.668701 747.838989,466.979492   C726.550049,463.208588 705.239807,459.557953 683.935059,455.876251   C674.101929,454.176971 664.245056,452.605560 654.440613,450.755432   C651.172302,450.138672 650.189453,451.327667 650.199158,454.317413   C650.233215,464.815979 650.294861,475.315979 650.152710,485.812836   C650.099182,489.764282 652.370117,490.516754 655.535706,490.686279   C669.496643,491.434021 683.456665,492.198517 697.414490,493.001617   C714.365906,493.976898 731.312256,495.042633 748.266663,495.960052   C751.733093,496.147644 753.380188,497.392242 753.301880,501.105896   C753.129761,509.268036 753.169006,517.437500 753.288757,525.601501   C753.335754,528.803162 751.972351,530.051575 748.873596,530.216248   C730.089600,531.214355 711.309326,532.285828 692.529846,533.366943   C680.401184,534.065186 668.280640,534.920105 656.146790,535.501587   C651.521118,535.723328 649.902283,537.613770 650.071655,542.316772   C650.413391,551.803406 650.337891,561.315186 650.101929,570.808289   C649.987488,575.408325 651.910400,576.059326 655.899841,575.360352   C686.532715,569.993652 717.199341,564.820068 747.824402,559.410095   C751.757324,558.715332 753.401489,559.432495 753.307922,563.666260   C753.131226,571.661499 753.160950,579.664978 753.298889,587.661682   C753.354126,590.864685 752.111816,592.404175 749.009521,593.290222   C718.601318,601.974426 688.230408,610.789307 657.844788,619.552734   C650.188477,621.760864 650.180359,621.737244 650.179077,629.700195   C650.177612,638.532593 650.151672,647.365173 650.203918,656.197266   C650.213379,657.794312 649.723083,659.535583 651.433655,661.473267   C684.818787,648.092285 718.384644,634.638855 752.629150,620.913452   C753.700500,626.717224 752.468079,631.634216 753.348633,636.251038   C756.003662,650.171570 749.697266,657.009644 737.296875,662.893555   C709.176270,676.236328 681.859436,691.286743 654.354858,705.904419   C647.455933,709.570862 640.377502,707.814575 633.338806,708.075623   C631.762939,708.134155 631.057373,706.828613 630.946899,705.371460   C630.833679,703.879211 630.838989,702.375916 630.838745,700.877441   C630.827759,622.718872 630.776001,544.560303 630.919739,466.402008   C630.929138,461.289551 629.437439,458.390991 624.868896,455.802826   C610.522461,447.675354 596.524231,438.934570 582.352234,430.496643   C580.426575,429.350159 578.691956,427.594696 575.110535,427.785522   C575.110535,508.730377 575.110535,589.615173 575.110840,671.000000  M388.564270,470.933838   C386.061523,477.346741 387.648773,483.989197 387.598694,490.522736   C387.582336,492.658813 389.886902,492.588989 391.534180,492.595886   C398.187836,492.623718 404.843170,492.506744 411.494965,492.617432   C414.815186,492.672668 415.869293,491.083649 415.799438,488.030914   C415.696716,483.541901 415.691772,479.047241 415.791901,474.558258   C415.855835,471.692535 414.883301,470.239807 411.774475,470.314758   C404.297241,470.495087 396.815796,470.500488 388.564270,470.933838  M392.841736,423.422546   C388.880432,422.968323 386.995117,424.420166 387.286987,428.709381   C387.579437,433.007172 387.426788,437.341858 387.329254,441.657166   C387.268311,444.355133 388.276947,445.618774 391.101685,445.583069   C397.742218,445.499054 404.386780,445.476013 411.025482,445.621887   C414.365692,445.695251 415.946869,444.523132 415.815979,441.019745   C415.661072,436.874237 415.637939,432.710999 415.838196,428.569000   C416.004852,425.122314 414.413086,423.673798 411.197601,423.624359   C405.388580,423.535004 399.578949,423.486420 392.841736,423.422546  M387.349640,524.689514   C387.353363,528.185974 387.412720,531.683533 387.342041,535.178528   C387.291656,537.668030 388.384155,538.915894 390.877808,538.916626   C397.870331,538.918762 404.862946,538.903381 411.855377,538.928467   C414.537109,538.938110 415.815765,537.720947 415.780640,534.987305   C415.724945,530.659241 415.652496,526.324402 415.832642,522.002563   C415.973938,518.612549 414.762207,517.174988 411.229431,517.293091   C405.408630,517.487854 399.557220,517.628357 393.754639,517.246338   C388.688293,516.912842 386.560211,518.704773 387.349640,524.689514  z"/>
<path fill="#000000" opacity="1.000000" stroke="none" d=" M273.655457,507.271606   C273.094208,503.241821 274.958954,500.936218 277.461517,498.699951   C298.076752,480.278442 318.624115,461.780914 339.195312,443.310120   C340.288361,442.328674 341.296753,441.163849 343.049927,441.212372   C344.905701,443.219849 344.140503,445.666840 344.142181,447.874390   C344.192780,514.341431 344.189209,580.808533 344.191803,647.275574   C344.192078,654.611633 344.185822,654.647644 351.576691,654.592712   C378.057709,654.396057 404.545349,655.179749 431.019318,654.107849   C435.219086,653.937866 437.438690,654.947937 437.340790,659.896423   C437.060822,674.050537 437.103333,688.216003 437.327057,702.372131   C437.399872,706.978271 435.802399,708.363159 431.247284,708.351929   C380.939423,708.227722 330.631134,708.287537 280.322937,708.287048   C273.696045,708.286987 273.662384,708.259949 273.661438,701.640198   C273.652222,637.005615 273.655121,572.371033 273.655457,507.271606  z"/>
</svg>